<?xml version="1.0" encoding="UTF-8"?>
<svg id="Layer_1" xmlns="http://www.w3.org/2000/svg" version="1.1" viewBox="0 0 800 800">
  <!-- Generator: Adobe Illustrator 29.4.0, SVG Export Plug-In . SVG Version: 2.1.0 Build 152)  -->
  <defs>
    <style>
      .st0 {
        fill: #fff;
      }
    </style>
  </defs>
  <rect width="800" height="800"/>
  <path class="st0" d="M665.27,69.95c16.98,0,33.56,6.95,45.46,19.06l.12.12.12.12c12.68,12.46,19.62,29.8,19.03,47.57v.33s-.01.33-.01.33v524.93c-.11,18.04-7.21,34.98-19.98,47.72-12.77,12.74-29.74,19.79-47.78,19.85H136.84c-.7.03-1.41.05-2.11.05-16.99,0-33.56-6.95-45.46-19.06l-.12-.12-.12-.12c-12.57-12.36-19.51-29.57-19.03-47.19v-.27s0-.27,0-.27V136.84c-.6-17.77,6.34-35.11,19.02-47.57l.12-.12.12-.12c11.91-12.12,28.48-19.06,45.46-19.06.7,0,1.41.01,2.11.03h.33s.33.01.33.01h525.66c.7-.03,1.41-.05,2.11-.05h0M134.73,49.95c-22.42,0-43.96,9-59.73,25.05-16.71,16.42-25.77,39.09-25,62.5v525.5c-.63,23.24,8.42,45.7,25,62,15.77,16.05,37.3,25.05,59.73,25.05.92,0,1.85-.02,2.77-.05h524.75c48.31-.14,87.48-39.19,87.75-87.5V137.5c.77-23.41-8.29-46.08-25-62.5-15.77-16.05-37.31-25.05-59.73-25.05-.92,0-1.85.02-2.77.05H137.5c-.93-.03-1.85-.05-2.77-.05h0Z"/>
  <path class="st0" d="M404.75,457.75c2.61-30.88-15.69-59.71-44.75-70.5,22.59-11.7,36.49-35.31,35.75-60.75-.11-5.61-.61-11.2-1.5-16.75-10.25-41.75-39.25-62.5-87-62.5h-148c-1.5,0-2.25,0-2.5,2v298c-.15,1.24.73,2.36,1.97,2.5.18.03.35.03.53,0h111.75c24.08.75,48.16-1.35,71.75-6.25,37.48-10.79,62.95-45.51,62-84.5v-1.25ZM218.25,300h71.75c29.5,0,44.25,10.75,44.25,32.25-.35,5.34-1.27,10.62-2.75,15.75-4.25,11.75-22.5,17.5-54.25,17.5h-59v-65.5ZM340,456c0,26.5-14.25,39.75-42.75,39.75h-79v-79.25h73.5c32.25,0,48.25,11.75,48.25,35.75v3.75Z"/>
  <path class="st0" d="M641,411.5c-3.89-55.09-51.71-96.59-106.8-92.7-.82.06-1.63.13-2.45.2-15.97-.1-31.79,3.05-46.5,9.25-40.88,17.14-66.45,58.26-63.75,102.5v17.75c-.27,21.36,5.36,42.38,16.25,60.75,21.5,30.47,56.72,48.27,94,47.5,23.91.99,47.6-4.91,68.25-17,26.25-21.25,39.25-39,39.25-53,0-2.5,0-4-2-4h-56.5c-8.98,16.66-26.59,26.82-45.5,26.25-4.66-.18-9.28-.94-13.75-2.25-25.33-4.3-43.28-27.11-41.5-52.75h160.75c1.5,0,2,0,2-1.75v-18.75c.02-7.36-.57-14.72-1.75-22ZM482.5,414c.47-4,1.4-7.94,2.75-11.75,5.29-20.99,24.92-35.12,46.5-33.5,5.63.02,11.24.6,16.75,1.75,19.6,5.34,33.15,23.2,33,43.5h-99Z"/>
  <path class="st0" d="M463.5,264s-1.5,0-1.75,2v27.25c0,1.75,0,2.5,1.75,2.5h128.25c2,0,3,0,3-2.5v-27.25c0-1.25,0-2-3-2h-128.25Z"/>
</svg>