<?xml version="1.0" encoding="UTF-8"?>
<svg id="Layer_1" xmlns="http://www.w3.org/2000/svg" version="1.1" viewBox="0 0 800 800">
  <!-- Generator: Adobe Illustrator 29.4.0, SVG Export Plug-In . SVG Version: 2.1.0 Build 152)  -->
  <defs>
    <style>
      .st0, .st1, .st2 {
        fill: #fff;
      }

      .st1, .st2 {
        fill-rule: evenodd;
      }

      .st2 {
        stroke: #000;
        stroke-miterlimit: 10;
        stroke-width: 13px;
      }
    </style>
  </defs>
  <rect y="0" width="803.33" height="803.33"/>
  <path class="st2" d="M400,591.31c105.66,0,191.31-85.65,191.31-191.31s-85.65-191.31-191.31-191.31-191.31,85.65-191.31,191.31,85.65,191.31,191.31,191.31ZM400,527.54c70.44,0,127.54-57.11,127.54-127.54s-57.11-127.54-127.54-127.54-127.54,57.11-127.54,127.54,57.11,127.54,127.54,127.54Z"/>
  <path class="st0" d="M591.31,176.81c-17.61,0-31.88,14.27-31.88,31.88s14.27,31.88,31.88,31.88,31.88-14.27,31.88-31.88-14.27-31.88-31.88-31.88Z"/>
  <g>
    <path class="st1" d="M355.36,744.23c-105.97,0-159.16,0-198.69-20.14-35-17.83-62.93-45.76-80.76-80.76-20.14-39.53-20.14-92.72-20.14-198.69v-89.27c0-105.97,0-159.16,20.14-198.69,17.83-35,45.76-62.93,80.76-80.76,39.53-20.14,92.72-20.14,198.69-20.14h89.27c105.97,0,159.16,0,198.69,20.14,35,17.83,62.93,45.76,80.76,80.76,20.14,39.53,20.14,92.72,20.14,198.69v89.27c0,105.97,0,159.16-20.14,198.69-17.83,35-45.76,62.93-80.76,80.76-39.53,20.14-92.72,20.14-198.69,20.14h-89.27ZM355.37,106.54c-53.09,0-91.44,0-120.99,2.41-25.29,2.07-42.15,5.83-54.65,12.19-25.39,12.93-45.65,33.19-58.58,58.58-6.37,12.5-10.13,29.36-12.19,54.65-2.41,29.56-2.41,67.91-2.41,120.99v89.27c0,53.08,0,91.43,2.41,120.99,2.07,25.3,5.83,42.16,12.19,54.65,12.93,25.38,33.18,45.63,58.58,58.58,12.5,6.37,29.36,10.13,54.65,12.19,29.56,2.41,67.91,2.41,120.99,2.41h89.27c53.08,0,91.43,0,120.99-2.41,25.31-2.07,42.16-5.83,54.65-12.19,25.38-12.92,45.63-33.18,58.58-58.58,6.37-12.5,10.13-29.36,12.19-54.65,2.41-29.55,2.41-67.91,2.41-120.99v-89.27c0-53.09,0-91.44-2.41-120.99-2.07-25.29-5.83-42.15-12.19-54.65-12.93-25.39-33.19-45.65-58.58-58.58-12.5-6.37-29.36-10.13-54.65-12.19-29.56-2.41-67.91-2.41-120.99-2.41h-89.27Z"/>
    <path d="M444.63,62.28c104.93,0,157.6,0,195.74,19.44,16.7,8.51,31.88,19.54,45.13,32.79,13.25,13.25,24.28,28.44,32.79,45.13,19.44,38.14,19.44,90.81,19.44,195.74v89.27c0,104.93,0,157.6-19.44,195.74-8.51,16.7-19.54,31.88-32.79,45.13-13.25,13.25-28.44,24.28-45.13,32.79-38.14,19.44-90.81,19.44-195.74,19.44h-89.27c-104.93,0-157.6,0-195.74-19.44-16.7-8.51-31.88-19.54-45.13-32.79-13.25-13.25-24.28-28.44-32.79-45.13-19.44-38.14-19.44-90.81-19.44-195.74v-89.27c0-104.93,0-157.6,19.44-195.74,8.51-16.7,19.54-31.88,32.79-45.13,13.25-13.25,28.44-24.28,45.13-32.79,38.14-19.44,90.81-19.44,195.74-19.44h89.27M355.37,699.95h89.27c53.23,0,91.69,0,121.52-2.43,26.54-2.17,43.61-6.02,57.07-12.88,26.61-13.55,47.85-34.79,61.42-61.42,6.86-13.47,10.71-30.54,12.88-57.07,2.43-29.82,2.43-68.28,2.43-121.51v-89.27c0-53.24,0-91.71-2.43-121.52-2.17-26.53-6.02-43.59-12.88-57.07-13.56-26.62-34.8-47.86-61.42-61.42-13.47-6.86-30.54-10.71-57.07-12.88-29.82-2.43-68.28-2.43-121.51-2.43h-89.27c-53.24,0-91.71,0-121.52,2.43-26.53,2.17-43.59,6.02-57.07,12.88-26.62,13.56-47.86,34.8-61.42,61.42-6.86,13.47-10.71,30.54-12.88,57.07-2.43,29.82-2.43,68.28-2.43,121.51v89.27c0,53.23,0,91.69,2.43,121.52,2.17,26.54,6.02,43.61,12.88,57.07,13.55,26.61,34.79,47.85,61.42,61.42,13.47,6.86,30.54,10.71,57.07,12.88,29.82,2.43,68.28,2.43,121.51,2.43M444.63,49.28h-89.27c-107.14,0-160.72,0-201.64,20.85-35.99,18.34-65.26,47.61-83.6,83.6h0c-20.85,40.92-20.85,94.5-20.85,201.64v89.27c0,107.14,0,160.72,20.85,201.64,18.34,35.99,47.61,65.26,83.6,83.6,40.92,20.85,94.5,20.85,201.64,20.85h89.27c107.14,0,160.72,0,201.64-20.85,35.99-18.34,65.26-47.61,83.6-83.6,20.85-40.92,20.85-94.5,20.85-201.64v-89.27c0-107.14,0-160.72-20.85-201.64-18.34-35.99-47.61-65.26-83.6-83.6-40.92-20.85-94.5-20.85-201.64-20.85h0ZM355.37,686.95c-54.62,0-91.75-.05-120.46-2.39-27.96-2.29-42.25-6.43-52.23-11.51-24-12.23-43.51-31.74-55.74-55.74-5.08-9.97-9.22-24.27-11.51-52.23-2.34-28.71-2.39-65.83-2.39-120.46v-89.27c0-54.62.05-91.75,2.39-120.46,2.29-27.96,6.43-42.25,11.51-52.23,12.22-24,31.74-43.51,55.74-55.74,9.98-5.08,24.27-9.22,52.23-11.51,28.7-2.34,65.83-2.39,120.46-2.39h89.27c54.63,0,91.75.05,120.46,2.39,27.96,2.29,42.25,6.43,52.23,11.51,24,12.22,43.51,31.74,55.74,55.74,5.08,9.98,9.22,24.27,11.51,52.23,2.34,28.7,2.39,65.83,2.39,120.46v89.27c0,54.63-.05,91.75-2.39,120.46-2.29,27.96-6.43,42.25-11.51,52.23-12.23,24-31.74,43.51-55.74,55.74-9.97,5.08-24.27,9.22-52.23,11.51-28.71,2.34-65.83,2.39-120.46,2.39h-89.27Z"/>
  </g>
</svg>