<?xml version="1.0" encoding="UTF-8"?>
<svg id="Layer_1" xmlns="http://www.w3.org/2000/svg" version="1.1" viewBox="0 0 800 800">
  <!-- Generator: Adobe Illustrator 29.4.0, SVG Export Plug-In . SVG Version: 2.1.0 Build 152)  -->
  <defs>
    <style>
      .st0 {
        fill: #fff;
      }
    </style>
  </defs>
  <rect width="803.33" height="803.33"/>
  <path class="st0" d="M665.27,69.95c16.98,0,33.56,6.95,45.46,19.06l.12.12.12.12c12.68,12.46,19.62,29.8,19.03,47.57v.33s-.01.33-.01.33v524.93c-.11,18.04-7.21,34.98-19.98,47.72-12.77,12.74-29.74,19.79-47.78,19.85H136.84c-.7.03-1.41.05-2.11.05-16.99,0-33.56-6.95-45.46-19.06l-.12-.12-.12-.12c-12.57-12.36-19.51-29.57-19.03-47.19v-.27s0-.27,0-.27V136.84c-.6-17.77,6.34-35.11,19.02-47.57l.12-.12.12-.12c11.91-12.12,28.48-19.06,45.46-19.06.7,0,1.41.01,2.11.03h.33s.33.01.33.01h525.66c.7-.03,1.41-.05,2.11-.05h0M134.73,49.95c-22.42,0-43.96,9-59.73,25.05-16.71,16.42-25.77,39.09-25,62.5v525.5c-.63,23.24,8.42,45.7,25,62,15.77,16.05,37.3,25.05,59.73,25.05.92,0,1.85-.02,2.77-.05h524.75c48.31-.14,87.48-39.19,87.75-87.5V137.5c.77-23.41-8.29-46.08-25-62.5-15.77-16.05-37.31-25.05-59.73-25.05-.92,0-1.85.02-2.77.05H137.5c-.93-.03-1.85-.05-2.77-.05h0Z"/>
  <g>
    <polygon class="st0" points="282.63 615.81 189.24 615.81 189.24 328.06 280.11 328.06 280.11 615.81 282.63 615.81"/>
    <path class="st0" d="M234.67,287.68c-27.76,0-53.01-22.72-53.01-53.01s22.72-53.01,53.01-53.01,53.01,22.72,53.01,53.01-22.72,53.01-53.01,53.01Z"/>
    <path class="st0" d="M618.33,618.33h-90.87v-159.02c0-45.43-20.19-60.58-45.43-60.58-27.76,0-53.01,20.19-53.01,63.1v156.49h-93.39v-290.27h88.34v40.39h0c7.57-17.67,40.39-47.96,85.82-47.96,50.48,0,106.01,30.29,106.01,118.63v179.21h2.52Z"/>
  </g>
</svg>